<svg xmlns="http://www.w3.org/2000/svg" width="256" height="256" viewBox="0 0 256 256">
<title>WINDO brand mark</title>
<path d="M128 33 L188 55 L184 151 L157 192 L128 209 L99 192 L72 151 L68 55 Z" fill="#07111F" stroke="#E53935" stroke-width="14" stroke-linejoin="round"/>
<path d="M137 80 L174 74 L174 113 L137 116 Z" fill="#E53935"/>
<path d="M184 72 L219 66 L219 110 L184 113 Z" fill="#E53935"/>
<path d="M137 126 L174 124 L174 166 L137 158 Z" fill="#E53935"/>
<path d="M184 124 L219 120 L219 178 L184 168 Z" fill="#E53935"/>
<path d="M84 93 L111 128 L84 163" fill="none" stroke="#FFFFFF" stroke-width="17" stroke-linecap="round" stroke-linejoin="round"/>
<rect x="88" y="152" width="34" height="9" rx="4" fill="#A7B0BC"/>
</svg>